<svg width="25" height="19" viewBox="0 0 25 19" fill="none" xmlns="http://www.w3.org/2000/svg">
<g clip-path="url(#clip0_8_35)">
<path d="M16.25 9.50002C16.25 11.7486 14.5711 13.5714 12.5 13.5714C10.4289 13.5714 8.75 11.7486 8.75 9.50002C8.75 7.25144 10.4289 5.42859 12.5 5.42859C14.5711 5.42859 16.25 7.25144 16.25 9.50002Z" fill="#0D0D0D" fill-opacity="0.79"/>
<path d="M24.868 8.89307C22.1702 3.03505 17.3789 0 12.5 0C7.62109 0 2.82974 3.03505 0.131966 8.89307C-0.0439887 9.27514 -0.0439887 9.72486 0.131966 10.1069C2.82974 15.965 7.62109 19 12.5 19C17.3789 19 22.1702 15.965 24.868 10.1069C25.044 9.72486 25.044 9.27514 24.868 8.89307ZM12.5 16.2857C8.78901 16.2857 4.99757 14.0861 2.66207 9.5C4.99757 4.91392 8.78901 2.71429 12.5 2.71429C16.211 2.71429 20.0024 4.91392 22.3379 9.5C20.0024 14.0861 16.211 16.2857 12.5 16.2857Z" fill="#0D0D0D" fill-opacity="0.79"/>
</g>
<defs>
<clipPath id="clip0_8_35">
<rect width="25" height="19" fill="white"/>
</clipPath>
</defs>
</svg>
