<svg width="18" height="20" viewBox="0 0 18 19" fill="none" xmlns="http://www.w3.org/2000/svg">
<path d="M11.9998 5C11.9998 6.65685 10.6567 8 8.99983 8C7.34297 8 5.99983 6.65685 5.99983 5C5.99983 3.34315 7.34297 2 8.99983 2C10.6567 2 11.9998 3.34315 11.9998 5Z" fill="#6bc1db"/>
<path d="M16 14C16 13.3434 15.8189 12.6932 15.4672 12.0866C15.1154 11.48 14.5998 10.9288 13.9497 10.4645C13.2997 10.0002 12.5281 9.63188 11.6788 9.3806C10.8295 9.12933 9.91925 9 9 9C8.08075 9 7.17049 9.12933 6.32122 9.3806C5.47194 9.63188 4.70026 10.0002 4.05025 10.4645C3.40024 10.9288 2.88463 11.48 2.53284 12.0866C2.18106 12.6932 2 13.3434 2 14L9 14H16Z" fill="#6bc1db"/>
</svg>
