<svg width="26" height="26" viewBox="0 0 26 26" fill="none" xmlns="http://www.w3.org/2000/svg">
<path d="M2.33319 24.9999C2.43947 25.0127 2.54691 25.0127 2.65319 24.9999L7.98652 23.6665C8.22312 23.6103 8.43982 23.4904 8.61319 23.3199L24.9999 6.87987C25.4965 6.38024 25.7753 5.70437 25.7753 4.99987C25.7753 4.29538 25.4965 3.6195 24.9999 3.11987L22.8932 0.999871C22.6455 0.751934 22.3514 0.555243 22.0277 0.421045C21.704 0.286847 21.357 0.217773 21.0065 0.217773C20.6561 0.217773 20.3091 0.286847 19.9853 0.421045C19.6616 0.555243 19.3675 0.751934 19.1199 0.999871L2.73319 17.3865C2.56091 17.5607 2.43685 17.7766 2.37319 18.0132L1.03986 23.3465C0.991932 23.5191 0.979248 23.6995 1.00256 23.877C1.02587 24.0545 1.0847 24.2255 1.17554 24.3798C1.26637 24.5341 1.38736 24.6686 1.53127 24.7751C1.67519 24.8816 1.83909 24.9581 2.01319 24.9999C2.11947 25.0127 2.22691 25.0127 2.33319 24.9999ZM20.9999 2.87987L23.1199 4.99987L20.9999 7.11987L18.8932 4.99987L20.9999 2.87987ZM4.87985 19.0132L16.9999 6.87987L19.1199 8.99987L6.98652 21.1332L4.17319 21.8265L4.87985 19.0132Z" fill="white"/>
</svg>
