<svg width="160" height="160" viewBox="0 0 160 160" fill="none" xmlns="http://www.w3.org/2000/svg">
<g clip-path="url(#clip0_707_8111)">
<rect width="160" height="160" fill="white"/>
<circle cx="80" cy="80" r="80" fill="##6bc1db"/>
<path d="M80 80.001C91.0457 80.001 100 71.0467 100 60.001C100 48.9553 91.0457 40.001 80 40.001C68.9543 40.001 60 48.9553 60 60.001C60 71.0467 68.9543 80.001 80 80.001Z" stroke="white" stroke-width="5.05263"/>
<path d="M100 88.001H101.408C104.333 88.0018 107.156 89.0704 109.348 91.0061C111.54 92.9418 112.95 95.6112 113.312 98.513L114.876 111.009C115.017 112.135 114.917 113.277 114.582 114.361C114.247 115.445 113.686 116.446 112.935 117.296C112.184 118.147 111.261 118.828 110.226 119.294C109.192 119.76 108.071 120.001 106.936 120.001H53.0642C51.9298 120.001 50.8082 119.76 49.774 119.294C48.7398 118.828 47.8166 118.147 47.0657 117.296C46.3148 116.446 45.7534 115.445 45.4187 114.361C45.0839 113.277 44.9836 112.135 45.1242 111.009L46.6842 98.513C47.047 95.6099 48.4579 92.9393 50.6516 91.0035C52.8452 89.0676 55.6706 87.9999 58.5962 88.001H60.0002" stroke="white" stroke-width="5.05263" stroke-linecap="round" stroke-linejoin="round"/>
</g>
<defs>
<clipPath id="clip0_707_8111">
<rect width="160" height="160" fill="white"/>
</clipPath>
</defs>
</svg>